<?xml version="1.0" encoding="UTF-8" standalone="no"?>
<!DOCTYPE svg PUBLIC "-//W3C//DTD SVG 1.1//EN"
 "http://www.w3.org/Graphics/SVG/1.1/DTD/svg11.dtd">
<!-- Generated by graphviz version 2.40.1 (20161225.0304)
 -->
<!-- Title: models_diagram Pages: 1 -->
<svg width="654pt" height="246pt"
 viewBox="0.00 0.00 653.55 246.00" xmlns="http://www.w3.org/2000/svg" xmlns:xlink="http://www.w3.org/1999/xlink">
<g id="graph0" class="graph" transform="scale(1 1) rotate(0) translate(4 242)">
<title>models_diagram</title>
<polygon fill="transparent" stroke="transparent" points="-4,4 -4,-242 649.55,-242 649.55,4 -4,4"/>
<!-- _diagram_info -->
<g id="node1" class="node">
<title>_diagram_info</title>
<text text-anchor="start" x="8" y="-216.6" font-family="Times,serif" font-size="13.00" fill="#000000">Models diagram</text>
<text text-anchor="start" x="8" y="-203.6" font-family="Times,serif" font-size="13.00" fill="#000000">Date: Aug 30 2017 &#45; 11:49</text>
<text text-anchor="start" x="8" y="-190.6" font-family="Times,serif" font-size="13.00" fill="#000000">Migration version: 20170830143624</text>
<text text-anchor="start" x="8" y="-177.6" font-family="Times,serif" font-size="13.00" fill="#000000">Generated by RailRoady 1.5.3</text>
<text text-anchor="start" x="8" y="-164.6" font-family="Times,serif" font-size="13.00" fill="#000000">http://railroady.prestonlee.com</text>
</g>
<!-- ApplicationRecord -->
<g id="node2" class="node">
<title>ApplicationRecord</title>
<ellipse fill="none" stroke="#000000" cx="302.6877" cy="-194.5" rx="77.2916" ry="18"/>
<text text-anchor="middle" x="302.6877" y="-190.3" font-family="Times,serif" font-size="14.00" fill="#000000">ApplicationRecord</text>
</g>
<!-- Category -->
<g id="node3" class="node">
<title>Category</title>
<path fill="none" stroke="#000000" d="M409.8254,-151.5C409.8254,-151.5 633.55,-151.5 633.55,-151.5 639.55,-151.5 645.55,-157.5 645.55,-163.5 645.55,-163.5 645.55,-225.5 645.55,-225.5 645.55,-231.5 639.55,-237.5 633.55,-237.5 633.55,-237.5 409.8254,-237.5 409.8254,-237.5 403.8254,-237.5 397.8254,-231.5 397.8254,-225.5 397.8254,-225.5 397.8254,-163.5 397.8254,-163.5 397.8254,-157.5 403.8254,-151.5 409.8254,-151.5"/>
<text text-anchor="middle" x="521.6877" y="-222.3" font-family="Times,serif" font-size="14.00" fill="#000000">Category</text>
<polyline fill="none" stroke="#000000" points="397.8254,-215.5 645.55,-215.5 "/>
<text text-anchor="start" x="405.8254" y="-200.3" font-family="Times,serif" font-size="14.00" fill="#000000">id :integer</text>
<text text-anchor="start" x="405.8254" y="-186.3" font-family="Times,serif" font-size="14.00" fill="#000000">name :character varying</text>
<text text-anchor="start" x="405.8254" y="-172.3" font-family="Times,serif" font-size="14.00" fill="#000000">created_at :timestamp without time zone</text>
<text text-anchor="start" x="405.8254" y="-158.3" font-family="Times,serif" font-size="14.00" fill="#000000">updated_at :timestamp without time zone</text>
</g>
<!-- Product -->
<g id="node4" class="node">
<title>Product</title>
<path fill="none" stroke="#000000" d="M409.8254,-.5C409.8254,-.5 633.55,-.5 633.55,-.5 639.55,-.5 645.55,-6.5 645.55,-12.5 645.55,-12.5 645.55,-102.5 645.55,-102.5 645.55,-108.5 639.55,-114.5 633.55,-114.5 633.55,-114.5 409.8254,-114.5 409.8254,-114.5 403.8254,-114.5 397.8254,-108.5 397.8254,-102.5 397.8254,-102.5 397.8254,-12.5 397.8254,-12.5 397.8254,-6.5 403.8254,-.5 409.8254,-.5"/>
<text text-anchor="middle" x="521.6877" y="-99.3" font-family="Times,serif" font-size="14.00" fill="#000000">Product</text>
<polyline fill="none" stroke="#000000" points="397.8254,-92.5 645.55,-92.5 "/>
<text text-anchor="start" x="405.8254" y="-77.3" font-family="Times,serif" font-size="14.00" fill="#000000">id :integer</text>
<text text-anchor="start" x="405.8254" y="-63.3" font-family="Times,serif" font-size="14.00" fill="#000000">name :character varying</text>
<text text-anchor="start" x="405.8254" y="-49.3" font-family="Times,serif" font-size="14.00" fill="#000000">price :integer</text>
<text text-anchor="start" x="405.8254" y="-35.3" font-family="Times,serif" font-size="14.00" fill="#000000">category_id :integer</text>
<text text-anchor="start" x="405.8254" y="-21.3" font-family="Times,serif" font-size="14.00" fill="#000000">created_at :timestamp without time zone</text>
<text text-anchor="start" x="405.8254" y="-7.3" font-family="Times,serif" font-size="14.00" fill="#000000">updated_at :timestamp without time zone</text>
</g>
<!-- Category&#45;&gt;Product -->
<g id="edge1" class="edge">
<title>Category&#45;&gt;Product</title>
<path fill="none" stroke="#9f3b53" d="M521.6877,-143.1132C521.6877,-137.1547 521.6877,-131.0117 521.6877,-124.8805"/>
<ellipse fill="none" stroke="#9f3b53" cx="521.6878" cy="-147.1523" rx="4" ry="4"/>
<polygon fill="#9f3b53" stroke="#9f3b53" points="521.6878,-124.6083 526.1877,-114.6082 521.6878,-119.6083 521.6877,-114.6083 521.6877,-114.6083 521.6877,-114.6083 521.6878,-119.6083 517.1877,-114.6083 521.6878,-124.6083 521.6878,-124.6083"/>
</g>
</g>
</svg>
